<svg width="24" height="24" viewBox="0 0 24 24" fill="none" xmlns="http://www.w3.org/2000/svg">
<path fill-rule="evenodd" clip-rule="evenodd" d="M9.28695 15.7264C9.45555 15.6817 9.63525 15.7281 9.76115 15.8488L11.3855 17.4068C11.5205 17.5363 11.5719 17.7303 11.5187 17.9097L11.1641 19.1064C11.0756 19.4052 10.8962 19.6689 10.6509 19.8611L8.32935 21.6797C7.6772 22.1905 6.7344 22.076 6.22355 21.4239C5.71265 20.7717 5.8272 19.8289 6.47935 19.318L8.4238 17.7948L8.93565 16.0676C8.9852 15.9004 9.11835 15.7711 9.28695 15.7264ZM9.66125 17.1386L9.33725 18.232C9.3077 18.3316 9.24795 18.4195 9.16615 18.4835L7.096 20.1052C6.87865 20.2755 6.84045 20.5898 7.01075 20.8072C7.18105 21.0246 7.4953 21.0627 7.7127 20.8925L10.0343 19.0738C10.116 19.0098 10.1758 18.9219 10.2053 18.8223L10.4734 17.9176L9.66125 17.1386Z" fill="black"/>
<path fill-rule="evenodd" clip-rule="evenodd" d="M14 6C14.8284 6 15.5 5.32845 15.5 4.5C15.5 3.67158 14.8284 3 14 3C13.1716 3 12.5 3.67158 12.5 4.5C12.5 5.32845 13.1716 6 14 6ZM14 7C15.3807 7 16.5 5.8807 16.5 4.5C16.5 3.11929 15.3807 2 14 2C12.6193 2 11.5 3.11929 11.5 4.5C11.5 5.8807 12.6193 7 14 7Z" fill="black"/>
<path fill-rule="evenodd" clip-rule="evenodd" d="M10.8684 7.18215C11.5823 6.9168 12.3493 6.9324 13.0379 7.28845C13.693 7.62715 14.1367 8.1998 14.4157 8.7991C14.5202 9.0233 14.6167 9.2327 14.7069 9.42845C14.9268 9.90535 15.1073 10.2968 15.2795 10.639C15.5227 11.1223 15.7006 11.4054 15.8576 11.5883C15.9922 11.7451 16.1082 11.8247 16.2568 11.8827C16.4324 11.9513 16.7187 12.0141 17.2281 12.0293C17.9993 12.0525 18.6058 12.6964 18.5827 13.4677C18.5595 14.2389 17.9156 14.8454 17.1443 14.8223C16.4659 14.8019 15.8273 14.7148 15.2402 14.4855C14.626 14.2455 14.1415 13.8791 13.7373 13.4082C13.6894 13.3524 13.6428 13.2953 13.5974 13.2371L13.3961 14.2889L15.5797 16.4435C15.7187 16.5807 15.8275 16.7456 15.8989 16.9275L17.141 20.0923C17.4229 20.8106 17.0692 21.6213 16.351 21.9033C15.6327 22.1852 14.8219 21.8314 14.54 21.1132L13.4061 18.2243L9.47669 14.347C9.17154 14.0459 9.02149 13.6213 9.06969 13.1954L9.23214 11.7601C8.78609 12.3371 8.41084 13.0304 8.14909 13.8506C7.91449 14.5857 7.12839 14.9914 6.39334 14.7568C5.65829 14.5222 5.25254 13.7361 5.48714 13.001C6.37094 10.232 8.37024 8.1466 10.8518 7.1884L10.8548 7.18725L10.8684 7.18215ZM11.2181 8.11895L11.2106 8.12185C9.01924 8.96845 7.23369 10.8177 6.43984 13.3051C6.37314 13.514 6.48844 13.7374 6.69739 13.8041C6.90629 13.8708 7.12974 13.7555 7.19644 13.5465C7.69329 11.9898 8.55894 10.8123 9.57654 9.98115C9.73404 9.85255 9.95374 9.8321 10.1322 9.92945C10.3107 10.0268 10.4125 10.2226 10.3896 10.4247L10.0634 13.3078C10.0496 13.4289 10.0923 13.5496 10.179 13.6351L14.184 17.5869C14.2338 17.6361 14.2727 17.6951 14.2983 17.7602L15.4709 20.7478C15.551 20.952 15.7815 21.0525 15.9856 20.9724C16.1898 20.8923 16.2903 20.6618 16.2102 20.4577L14.968 17.2929C14.9477 17.2412 14.9168 17.1943 14.8773 17.1553L12.5037 14.8132C12.3849 14.696 12.3324 14.5272 12.3638 14.3633L12.8541 11.8004C12.8941 11.5916 13.0616 11.4309 13.2719 11.3997C13.4821 11.3685 13.6891 11.4737 13.7879 11.6619C14.0129 12.0904 14.2384 12.4567 14.4961 12.7569C14.8039 13.1155 15.1565 13.3792 15.604 13.554C16.0439 13.7258 16.5565 13.8042 17.1743 13.8227C17.3935 13.8293 17.5765 13.6569 17.5831 13.4377C17.5897 13.2185 17.4173 13.0355 17.1981 13.0289C16.6284 13.0118 16.2159 12.9404 15.893 12.8142C15.5779 12.6911 15.33 12.509 15.0988 12.2397C14.8612 11.9629 14.6399 11.5925 14.3862 11.0885C14.2055 10.7294 14.0183 10.3233 13.8017 9.85345L13.7989 9.8474C13.7086 9.6514 13.6128 9.44355 13.5092 9.22125C13.2943 8.7598 12.9835 8.38605 12.5786 8.1767C12.1648 7.96275 11.694 7.9425 11.2181 8.11895Z" fill="black"/>
</svg>
