<svg width="24" height="24" viewBox="0 0 24 24" fill="none" xmlns="http://www.w3.org/2000/svg">
<path d="M6.46055 18.1027L9.11418 17.2121C9.59197 17.0518 10.1061 17.3294 10.2325 17.8173C10.3104 18.118 10.3974 18.4352 10.4944 18.7708C10.8179 19.8885 10.1998 21.0622 9.09644 21.4325L9.03665 21.4525C7.95738 21.8147 6.78146 21.2834 6.34062 20.2338C6.21494 19.9344 6.07839 19.608 5.93419 19.2613C5.74047 18.7956 5.98239 18.2632 6.46055 18.1027Z" stroke="black" stroke-width="1.5" stroke-miterlimit="10" stroke-linecap="round" stroke-linejoin="round"/>
<path d="M8.89687 9.01652C9.24072 10.8396 9.09511 11.8767 9.15159 13.3263C9.16667 13.7134 8.92664 14.0647 8.55934 14.188L4.98666 15.387C4.54762 15.5343 4.07027 15.3117 3.90051 14.8808C3.36509 13.5219 2.86377 12.1954 2.51562 11.1581C1.32317 7.60483 2.31696 5.26979 4.28753 4.60847C6.25815 3.94714 8.29513 5.82626 8.89687 9.01652Z" stroke="black" stroke-width="1.5" stroke-miterlimit="10" stroke-linecap="round" stroke-linejoin="round"/>
<path d="M18.2434 15.6262L15.5898 14.7357C15.112 14.5753 14.5979 14.853 14.4715 15.3408C14.3936 15.6415 14.3066 15.9587 14.2096 16.2943C13.8861 17.4121 14.5042 18.5857 15.6075 18.956L15.6673 18.9761C16.7466 19.3383 17.9225 18.8069 18.3634 17.7573C18.489 17.458 18.6256 17.1315 18.7698 16.7848C18.9635 16.3191 18.7216 15.7867 18.2434 15.6262Z" stroke="black" stroke-width="1.5" stroke-miterlimit="10" stroke-linecap="round" stroke-linejoin="round"/>
<path d="M15.8071 6.54005C15.4633 8.36316 15.6089 9.40025 15.5524 10.8498C15.5373 11.237 15.7773 11.5883 16.1446 11.7115L19.7173 12.9105C20.1564 13.0579 20.6337 12.8352 20.8035 12.4043C21.3389 11.0454 21.8402 9.71888 22.1884 8.68158C23.3809 5.12831 22.3871 2.79331 20.4164 2.13195C18.4458 1.47066 16.4089 3.34983 15.8071 6.54005Z" stroke="black" stroke-width="1.5" stroke-miterlimit="10" stroke-linecap="round" stroke-linejoin="round"/>
</svg>
